<svg width="257" height="57" viewBox="0 0 257 57" fill="none" xmlns="http://www.w3.org/2000/svg">
<path d="M87.4 0V11.4H68.4V22.8H87.4V34.2H68.4V45.6H87.4V57H239.3L256.4 28.5L239.3 0H87.4Z" fill="#5BBD73"/>
<path d="M0 57H15.865L21.47 45.6H39.9V57H54.15V0H27.835L0 57ZM39.9 14.915V34.2H26.98L36.385 14.915H39.9Z" fill="#5BBD73"/>
<path d="M101.94 35H98.9V21.7H101.94V35ZM117.147 21.7V35H114.715L108.407 27.02V35H105.557V21.7H107.989L114.297 29.718V21.7H117.147ZM125.45 31.352C125.45 30.7947 124.798 30.2057 123.493 29.585C123.113 29.4203 122.778 29.2683 122.486 29.129C122.208 28.977 121.891 28.7743 121.536 28.521C121.194 28.255 120.909 27.9827 120.681 27.704C120.466 27.4253 120.276 27.077 120.111 26.659C119.959 26.241 119.89 25.7913 119.902 25.31C119.902 24.246 120.295 23.3403 121.08 22.593C121.866 21.8457 122.904 21.472 124.196 21.472C125.894 21.472 127.198 21.9597 128.11 22.935L126.476 25.215C126.109 24.873 125.786 24.6387 125.507 24.512C125.241 24.3853 124.893 24.322 124.462 24.322C124.044 24.322 123.715 24.4107 123.474 24.588C123.246 24.7653 123.132 25.006 123.132 25.31C123.132 25.652 123.265 25.956 123.531 26.222C123.81 26.488 124.152 26.7097 124.557 26.887C124.975 27.0517 125.425 27.2607 125.906 27.514C126.388 27.7673 126.831 28.0397 127.236 28.331C127.654 28.6097 127.996 29.0087 128.262 29.528C128.541 30.0347 128.68 30.63 128.68 31.314C128.68 32.454 128.243 33.3913 127.369 34.126C126.521 34.8607 125.438 35.228 124.12 35.228C123.158 35.228 122.246 35.0317 121.384 34.639C120.51 34.2463 119.921 33.7143 119.617 33.043L121.346 30.972C121.688 31.4153 122.119 31.7637 122.638 32.017C123.158 32.2577 123.677 32.378 124.196 32.378C124.589 32.378 124.893 32.2893 125.108 32.112C125.336 31.922 125.45 31.6687 125.45 31.352ZM133.614 24.55H129.624V21.7H140.644V24.55H136.654V35H133.614V24.55ZM145.576 30.345V35H142.536V21.7C143.258 21.7 144.056 21.6937 144.93 21.681C145.804 21.6683 146.514 21.662 147.058 21.662C150.339 21.662 151.979 23.0807 151.979 25.918C151.979 27.742 151.232 29.0213 149.737 29.756L153.613 35H149.927L146.697 30.345H145.576ZM146.906 24.512C146.894 24.512 146.837 24.5183 146.735 24.531C146.634 24.531 146.476 24.5373 146.26 24.55C146.045 24.55 145.817 24.55 145.576 24.55V27.495H146.678C148.059 27.495 148.749 26.982 148.749 25.956C148.749 24.9933 148.135 24.512 146.906 24.512ZM163.319 21.7H166.359V29.509C166.359 31.4217 165.84 32.853 164.801 33.803C163.775 34.753 162.483 35.228 160.925 35.228C159.152 35.228 157.746 34.7277 156.707 33.727C155.656 32.7137 155.13 31.2633 155.13 29.376V21.7H158.17V28.73C158.17 31.162 159.089 32.378 160.925 32.378C161.774 32.378 162.382 32.093 162.749 31.523C163.129 30.953 163.319 30.079 163.319 28.901V21.7ZM178.785 31.409L179.944 33.689C179.539 34.145 178.937 34.5187 178.139 34.81C177.354 35.0887 176.511 35.228 175.612 35.228C173.547 35.228 171.869 34.601 170.577 33.347C169.285 32.0677 168.639 30.402 168.639 28.35C168.639 26.3487 169.247 24.702 170.463 23.41C171.679 22.118 173.389 21.472 175.593 21.472C176.429 21.472 177.208 21.5987 177.93 21.852C178.652 22.1053 179.228 22.441 179.659 22.859L178.31 25.139C177.423 24.5943 176.518 24.322 175.593 24.322C174.516 24.322 173.623 24.6767 172.914 25.386C172.217 26.0827 171.869 27.0707 171.869 28.35C171.869 29.5153 172.243 30.4843 172.99 31.257C173.737 32.0043 174.706 32.378 175.897 32.378C176.961 32.378 177.924 32.055 178.785 31.409ZM184.509 24.55H180.519V21.7H191.539V24.55H187.549V35H184.509V24.55ZM196.662 35H193.622V21.7H196.662V35ZM199.328 28.35C199.328 26.3867 199.981 24.7527 201.285 23.448C202.603 22.1307 204.306 21.472 206.396 21.472C208.474 21.472 210.165 22.099 211.469 23.353C212.799 24.607 213.464 26.2727 213.464 28.35C213.464 30.3513 212.793 31.998 211.45 33.29C210.12 34.582 208.436 35.228 206.396 35.228C204.332 35.228 202.634 34.601 201.304 33.347C199.987 32.093 199.328 30.4273 199.328 28.35ZM202.558 28.35C202.558 29.4773 202.932 30.4337 203.679 31.219C204.414 31.9917 205.32 32.378 206.396 32.378C207.612 32.378 208.556 32.0043 209.227 31.257C209.899 30.4843 210.234 29.5153 210.234 28.35C210.234 27.1467 209.867 26.1777 209.132 25.443C208.385 24.6957 207.473 24.322 206.396 24.322C205.282 24.322 204.363 24.6957 203.641 25.443C202.919 26.1903 202.558 27.1593 202.558 28.35ZM227.529 21.7V35H225.097L218.789 27.02V35H215.939V21.7H218.371L224.679 29.718V21.7H227.529ZM235.832 31.352C235.832 30.7947 235.18 30.2057 233.875 29.585C233.495 29.4203 233.16 29.2683 232.868 29.129C232.59 28.977 232.273 28.7743 231.918 28.521C231.576 28.255 231.291 27.9827 231.063 27.704C230.848 27.4253 230.658 27.077 230.493 26.659C230.341 26.241 230.272 25.7913 230.284 25.31C230.284 24.246 230.677 23.3403 231.462 22.593C232.248 21.8457 233.286 21.472 234.578 21.472C236.276 21.472 237.58 21.9597 238.492 22.935L236.858 25.215C236.491 24.873 236.168 24.6387 235.889 24.512C235.623 24.3853 235.275 24.322 234.844 24.322C234.426 24.322 234.097 24.4107 233.856 24.588C233.628 24.7653 233.514 25.006 233.514 25.31C233.514 25.652 233.647 25.956 233.913 26.222C234.192 26.488 234.534 26.7097 234.939 26.887C235.357 27.0517 235.807 27.2607 236.288 27.514C236.77 27.7673 237.213 28.0397 237.618 28.331C238.036 28.6097 238.378 29.0087 238.644 29.528C238.923 30.0347 239.062 30.63 239.062 31.314C239.062 32.454 238.625 33.3913 237.751 34.126C236.903 34.8607 235.82 35.228 234.502 35.228C233.54 35.228 232.628 35.0317 231.766 34.639C230.892 34.2463 230.303 33.7143 229.999 33.043L231.728 30.972C232.07 31.4153 232.501 31.7637 233.02 32.017C233.54 32.2577 234.059 32.378 234.578 32.378C234.971 32.378 235.275 32.2893 235.49 32.112C235.718 31.922 235.832 31.6687 235.832 31.352Z" fill="white"/>
</svg>
